<svg width="160" height="38" viewBox="0 0 160 38" fill="none" xmlns="http://www.w3.org/2000/svg">
<path d="M8.15176 25.9406C8.65438 25.2495 9.20411 24.7312 9.80097 24.3856C10.4292 24.0401 11.0575 23.7574 11.6858 23.5375C12.3454 23.3176 12.9894 23.1134 13.6177 22.9249C14.2774 22.705 14.9213 22.3595 15.5496 21.8883C15.8952 21.6998 16.3821 21.4171 17.0103 21.0401C17.6386 20.6631 18.2512 20.2548 18.848 19.815C19.4763 19.3438 20.0103 18.8883 20.4501 18.4485C20.9213 18.0087 21.1569 17.6317 21.1569 17.3176C21.1569 17.2862 21.1412 17.2705 21.1098 17.2705C21.0469 17.2705 21.0155 17.2548 21.0155 17.2234L20.9213 17.1291C20.7642 17.0663 20.5129 16.9878 20.1674 16.8935C19.8218 16.7993 19.6176 16.7365 19.5548 16.7051C15.5025 16.2339 12.2355 15.8255 9.75385 15.4799C7.3036 15.103 5.4031 14.7103 4.05232 14.3019C2.73296 13.8936 1.85339 13.4224 1.4136 12.8883C0.973814 12.3543 0.75392 11.6789 0.75392 10.8622C0.75392 10.548 0.816747 10.2025 0.942401 9.82553C1.06805 9.44857 1.20941 9.07161 1.36648 8.69465C1.55496 8.31769 1.74344 7.97214 1.93192 7.65801C2.1204 7.34388 2.29317 7.09257 2.45024 6.90409C2.95286 6.27582 3.61254 5.71038 4.42928 5.20777C5.24603 4.70516 6.1256 4.26537 7.068 3.88841C8.0104 3.51145 8.95281 3.18161 9.89521 2.89889C10.869 2.61617 11.7486 2.36486 12.5339 2.14497C13.4135 2.08214 14.2931 1.87795 15.1726 1.53241C16.0836 1.15545 16.9789 0.90414 17.8585 0.778486C18.2983 0.778486 18.6595 0.95126 18.9423 1.29681C19.225 1.64235 19.3663 2.00361 19.3663 2.38057C19.3663 2.91459 19.2564 3.32297 19.0365 3.60569C18.848 3.85699 18.581 4.06118 18.2355 4.21825C17.9213 4.3439 17.5601 4.45385 17.1517 4.54809C16.7433 4.61092 16.3349 4.68945 15.9266 4.78369C15.6753 4.84652 15.3297 4.94076 14.8899 5.06641C14.4501 5.16065 14.0104 5.2706 13.5706 5.39625C13.1308 5.5219 12.7381 5.63185 12.3926 5.72609C12.047 5.82033 11.8428 5.88316 11.78 5.91457C10.8062 6.32294 9.8795 6.71561 8.99993 7.09257C8.15176 7.43812 7.39784 7.79937 6.73816 8.17633C6.1099 8.55329 5.60728 8.96166 5.23032 9.40145C4.88478 9.80982 4.72771 10.2653 4.75912 10.7679V10.8151C5.07326 11.2548 5.78006 11.5847 6.87952 11.8046C7.97899 12.0245 9.26694 12.2129 10.7434 12.37C12.2512 12.5271 13.8219 12.6841 15.4554 12.8412C17.1203 12.9983 18.6438 13.2339 20.026 13.548C21.4082 13.8621 22.5548 14.2862 23.4658 14.8203C24.3768 15.3543 24.848 16.0768 24.8794 16.9878C24.8794 17.3333 24.8008 17.7417 24.6438 18.2129C24.5181 18.6841 24.3296 19.0454 24.0783 19.2967C23.293 20.1762 22.3506 21.0872 21.2511 22.0296C20.1831 22.972 19.0208 23.8516 17.7643 24.6683C16.5077 25.4537 15.2041 26.1291 13.8533 26.6945C12.5339 27.2285 11.2303 27.5427 9.94233 27.6369C9.50254 27.6369 9.09417 27.4798 8.71721 27.1657C8.34024 26.8202 8.15176 26.4118 8.15176 25.9406ZM28.2843 26.3257C28.0543 24.0252 27.8588 22.0584 27.6977 20.4251C27.5367 18.7918 27.3987 17.423 27.2837 16.3188C27.1686 15.2146 27.0651 14.3405 26.9731 13.6963C26.9041 13.0292 26.8466 12.5346 26.8006 12.2126C26.7546 11.8675 26.7201 11.6375 26.697 11.5224C26.674 11.4074 26.6625 11.3384 26.6625 11.3154V11.1774C26.6625 10.9243 26.7661 10.7173 26.9731 10.5563C27.2031 10.3722 27.4332 10.2802 27.6632 10.2802C28.0083 10.2802 28.3764 10.3377 28.7674 10.4527C29.1815 10.5678 29.4576 10.8093 29.5956 11.1774C29.8026 12.3046 29.9406 13.4433 30.0097 14.5935C30.1017 15.7437 30.1707 16.8939 30.2167 18.0441C30.2857 19.1713 30.3662 20.3101 30.4582 21.4603C30.5733 22.6105 30.7688 23.7492 31.0448 24.8764C31.0448 24.9224 31.0564 25.0144 31.0794 25.1524C31.1254 25.2905 31.1599 25.44 31.1829 25.601C31.2289 25.7621 31.2634 25.9116 31.2864 26.0496C31.3094 26.1876 31.3209 26.2797 31.3209 26.3257V26.3947C31.3209 26.4177 31.3324 26.4407 31.3554 26.4637C31.3554 26.7397 31.2289 27.0158 30.9758 27.2918C30.7228 27.5679 30.4582 27.6829 30.1822 27.6369C30.1132 27.6139 29.9406 27.5794 29.6646 27.5334C29.4115 27.4644 29.239 27.4069 29.147 27.3609C29.078 27.3378 28.986 27.2918 28.8709 27.2228C28.7559 27.1308 28.6409 27.0388 28.5259 26.9468C28.4339 26.8548 28.3534 26.7512 28.2843 26.6362C28.2153 26.5212 28.2153 26.4177 28.2843 26.3257ZM26.352 1.17053C26.352 1.0095 26.4785 0.87147 26.7316 0.756449C27.0076 0.618423 27.2146 0.549411 27.3527 0.549411C27.6977 0.549411 28.0773 0.65293 28.4914 0.859968C28.9285 1.044 29.147 1.33155 29.147 1.72263C29.147 2.1137 29.0895 2.37825 28.9745 2.51627C28.8824 2.6543 28.6409 2.72331 28.2498 2.72331C27.8358 2.72331 27.4102 2.58529 26.9731 2.30923C26.559 2.03318 26.352 1.65361 26.352 1.17053ZM33.1497 16.3878C33.1037 15.7897 33.0462 15.1916 32.9772 14.5935C32.9312 13.9724 32.8507 13.3628 32.7357 12.7647C32.7357 12.2586 32.8967 11.9365 33.2187 11.7985C33.5638 11.6605 33.9319 11.5914 34.323 11.5914H35.0131C35.3581 11.7525 35.5997 11.948 35.7377 12.1781C35.8757 12.4081 35.9678 12.6611 36.0138 12.9372C36.0598 13.2132 36.0713 13.5008 36.0483 13.7999C36.0483 14.0989 36.0598 14.3865 36.0828 14.6625C36.1058 14.7775 36.1173 14.9731 36.1173 15.2491C36.1173 15.5252 36.1173 15.8127 36.1173 16.1118C36.1403 16.4108 36.1633 16.6869 36.1863 16.9399C36.2323 17.193 36.2898 17.354 36.3588 17.423L39.3954 11.7295C39.5334 11.4764 39.7289 11.2694 39.982 11.1084C40.258 10.9243 40.5571 10.8553 40.8792 10.9013C41.3853 10.9473 41.7648 11.0508 42.0179 11.2119C42.2709 11.3499 42.4434 11.5454 42.5355 11.7985C42.6505 12.0285 42.708 12.3161 42.708 12.6611C42.731 13.0062 42.754 13.3858 42.777 13.7999C42.777 13.9379 42.7885 14.2024 42.8115 14.5935C42.8345 14.9616 42.8575 15.3526 42.8805 15.7667C42.9265 16.1808 42.961 16.5719 42.984 16.9399C43.0301 17.308 43.0646 17.561 43.0876 17.6991H43.2256C43.2716 17.538 43.3521 17.2275 43.4671 16.7674C43.6052 16.3073 43.7547 15.8242 43.9157 15.3181C44.0768 14.812 44.2263 14.3289 44.3643 13.8689C44.5023 13.4088 44.6058 13.0867 44.6749 12.9027C44.6979 12.8567 44.7439 12.7647 44.8129 12.6266C44.8819 12.4656 44.9509 12.3046 45.0199 12.1435C45.0889 11.9595 45.1579 11.7985 45.227 11.6605C45.296 11.4994 45.342 11.3844 45.365 11.3154C45.526 11.0623 45.687 10.9358 45.8481 10.9358C46.0321 10.9128 46.2276 10.9013 46.4347 10.9013C47.0098 10.9013 47.4469 11.0508 47.7459 11.3499C48.068 11.626 48.298 11.9825 48.4361 12.4196C48.5971 12.8567 48.7121 13.3398 48.7811 13.8689C48.8501 14.375 48.9306 14.8465 49.0227 15.2836C49.0457 15.2836 49.0572 15.3066 49.0572 15.3526C49.0572 15.3756 49.0457 15.3986 49.0227 15.4217L50.9205 25.463C51.0125 25.555 51.0585 25.6355 51.0585 25.7045C51.0815 25.7736 51.093 25.8656 51.093 25.9806C51.093 26.2336 50.9665 26.4867 50.7135 26.7397C50.4834 26.9698 50.2419 27.0848 49.9888 27.0848C49.6438 27.0848 49.2412 26.9583 48.7811 26.7052C48.344 26.4522 48.091 26.1301 48.022 25.7391L46.4347 17.561L46.2622 17.285C46.2161 17.4 46.1126 17.7336 45.9516 18.2857C45.8136 18.8148 45.641 19.4934 45.434 20.3216C45.227 21.1267 44.9854 22.0354 44.7094 23.0476C44.4563 24.0597 44.1918 25.0949 43.9157 26.1531C43.8697 26.3602 43.7317 26.5212 43.5016 26.6362C43.2946 26.7282 43.1106 26.7742 42.9495 26.7742C42.4665 26.7742 42.0754 26.7167 41.7763 26.6017C41.4773 26.4867 41.2472 26.3142 41.0862 26.0841C40.9252 25.8541 40.8101 25.578 40.7411 25.256C40.6721 24.9339 40.6146 24.5658 40.5686 24.1518C40.5686 24.0597 40.5456 23.7377 40.4996 23.1856C40.4536 22.6105 40.3961 21.9664 40.3271 21.2532C40.2811 20.5171 40.2235 19.781 40.1545 19.0448C40.0855 18.3087 40.0395 17.7221 40.0165 17.285C40.0165 17.193 40.0165 17.124 40.0165 17.078C40.0165 17.0319 40.0165 16.9974 40.0165 16.9744C40.0165 16.9284 40.005 16.8824 39.982 16.8364C39.959 16.7674 39.913 16.6639 39.844 16.5259L38.8433 18.9068L37.256 24.7384L36.9109 26.8778C36.8879 27.0158 36.8189 27.1423 36.7039 27.2573C36.6119 27.3493 36.4969 27.4299 36.3588 27.4989C36.2208 27.5449 36.0828 27.5794 35.9448 27.6024C35.8067 27.6254 35.6917 27.6369 35.5997 27.6369C35.0936 27.6369 34.6565 27.4529 34.2884 27.0848C33.9434 26.7167 33.7593 26.3142 33.7363 25.8771C33.7133 25.716 33.6903 25.4055 33.6673 24.9454C33.6443 24.4623 33.6098 23.8987 33.5638 23.2546C33.5178 22.6105 33.4718 21.9319 33.4258 21.2187C33.4028 20.5056 33.3683 19.827 33.3223 19.1828C33.2763 18.5387 33.2303 17.9751 33.1842 17.492C33.1612 17.0089 33.1497 16.6869 33.1497 16.5259V16.3878ZM53.7845 21.4258C53.3475 21.2647 52.9449 21.0692 52.5768 20.8391C52.2318 20.6091 52.0592 20.2295 52.0592 19.7004C52.0592 19.5624 52.0937 19.4704 52.1627 19.4244C52.2318 19.3784 52.2893 19.3094 52.3353 19.2174C52.3813 19.1483 52.4733 19.0218 52.6113 18.8378C52.7493 18.6537 52.8989 18.4582 53.0599 18.2512C53.2209 18.0211 53.3705 17.8141 53.5085 17.6301C53.6465 17.423 53.7385 17.285 53.7845 17.216C53.7845 16.9169 53.7615 16.5604 53.7155 16.1463C53.6925 15.7092 53.704 15.3066 53.75 14.9386C53.819 14.5475 53.9571 14.2254 54.1641 13.9724C54.3711 13.6963 54.7162 13.5583 55.1993 13.5583C55.4753 13.5583 55.7054 13.6618 55.8894 13.8689C56.0735 14.0529 56.3035 14.1449 56.5796 14.1449H56.7176C57.6608 13.4088 58.6269 12.7647 59.6161 12.2126C60.6283 11.6375 61.7555 11.3499 62.9977 11.3499C63.8029 11.3499 64.4585 11.5914 64.9646 12.0745C65.4937 12.5346 65.7582 13.1902 65.7582 14.0414C65.7582 15.0996 65.5167 16.1923 65.0336 17.3195C64.5505 18.4467 63.9409 19.5509 63.2048 20.6321C62.4916 21.6903 61.7095 22.691 60.8583 23.6342C60.0302 24.5773 59.271 25.394 58.5809 26.0841C58.5119 26.1761 58.4084 26.2797 58.2704 26.3947C58.1323 26.4867 58.0058 26.5902 57.8908 26.7052C57.7528 26.8203 57.6032 26.9583 57.4422 27.1193L57.1662 35.0558C57.1662 35.2628 57.1547 35.4813 57.1317 35.7114C57.1317 35.9414 57.0856 36.1485 56.9936 36.3325C56.9246 36.5395 56.8096 36.7006 56.6486 36.8156C56.5105 36.9536 56.3035 37.0226 56.0275 37.0226C55.8894 37.0226 55.7054 36.9881 55.4753 36.9191C55.2453 36.8731 55.0268 36.7926 54.8197 36.6776C54.6127 36.5625 54.4287 36.4245 54.2676 36.2635C54.1296 36.1025 54.0606 35.9184 54.0606 35.7114L53.7845 21.4258ZM56.9936 23.5997H57.1317C57.1547 23.5997 57.2237 23.5306 57.3387 23.3926C57.4767 23.2546 57.6262 23.0936 57.7873 22.9095C57.9713 22.7255 58.1438 22.5415 58.3049 22.3574C58.4889 22.1504 58.6269 21.9894 58.7189 21.8743C59.4091 21.3682 60.0417 20.7356 60.6168 19.9765C61.1919 19.2174 61.652 18.4582 61.9971 17.6991C62.3651 16.9169 62.5837 16.2153 62.6527 15.5942C62.7447 14.9731 62.6412 14.5475 62.3421 14.3174C62.0661 14.0644 61.5715 14.0874 60.8583 14.3865C60.1682 14.6855 59.225 15.3756 58.0288 16.4568C57.7528 16.6869 57.4997 16.9514 57.2697 17.2505C57.0396 17.5495 56.9016 17.8831 56.8556 18.2512L56.9936 23.5997ZM67.5181 25.2215C67.5181 24.2553 67.5411 23.3121 67.5871 22.3919C67.6331 21.4718 67.6561 20.5286 67.6561 19.5624C67.5871 16.9399 67.5641 14.375 67.5871 11.8675C67.6101 9.33703 67.4951 6.74905 67.242 4.10357C67.242 3.66649 67.3455 3.37893 67.5526 3.24091C67.7596 3.07988 68.0702 2.99936 68.4842 2.99936C69.0133 2.99936 69.4619 3.16039 69.83 3.48245C70.2211 3.78151 70.4281 4.20708 70.4511 4.75919C70.4051 8.02579 70.4396 11.2694 70.5546 14.49C70.6927 17.6876 70.7617 20.9312 70.7617 24.2208V26.8778C70.6236 27.0618 70.4281 27.2458 70.1751 27.4299C69.922 27.6139 69.669 27.6829 69.4159 27.6369C68.7488 27.5219 68.2657 27.2573 67.9667 26.8433C67.6676 26.4062 67.5181 25.8656 67.5181 25.2215ZM74.1433 26.3257C73.9132 24.0252 73.7177 22.0584 73.5567 20.4251C73.3957 18.7918 73.2576 17.423 73.1426 16.3188C73.0276 15.2146 72.9241 14.3405 72.832 13.6963C72.763 13.0292 72.7055 12.5346 72.6595 12.2126C72.6135 11.8675 72.579 11.6375 72.556 11.5224C72.533 11.4074 72.5215 11.3384 72.5215 11.3154V11.1774C72.5215 10.9243 72.625 10.7173 72.832 10.5563C73.0621 10.3722 73.2921 10.2802 73.5222 10.2802C73.8672 10.2802 74.2353 10.3377 74.6264 10.4527C75.0405 10.5678 75.3165 10.8093 75.4545 11.1774C75.6616 12.3046 75.7996 13.4433 75.8686 14.5935C75.9606 15.7437 76.0296 16.8939 76.0756 18.0441C76.1447 19.1713 76.2252 20.3101 76.3172 21.4603C76.4322 22.6105 76.6277 23.7492 76.9038 24.8764C76.9038 24.9224 76.9153 25.0144 76.9383 25.1524C76.9843 25.2905 77.0188 25.44 77.0418 25.601C77.0878 25.7621 77.1223 25.9116 77.1453 26.0496C77.1683 26.1876 77.1798 26.2797 77.1798 26.3257V26.3947C77.1798 26.4177 77.1914 26.4407 77.2144 26.4637C77.2144 26.7397 77.0878 27.0158 76.8348 27.2918C76.5817 27.5679 76.3172 27.6829 76.0411 27.6369C75.9721 27.6139 75.7996 27.5794 75.5235 27.5334C75.2705 27.4644 75.098 27.4069 75.0059 27.3609C74.9369 27.3378 74.8449 27.2918 74.7299 27.2228C74.6149 27.1308 74.4999 27.0388 74.3848 26.9468C74.2928 26.8548 74.2123 26.7512 74.1433 26.6362C74.0743 26.5212 74.0743 26.4177 74.1433 26.3257ZM72.2109 1.17053C72.2109 1.0095 72.3375 0.87147 72.5905 0.756449C72.8666 0.618423 73.0736 0.549411 73.2116 0.549411C73.5567 0.549411 73.9363 0.65293 74.3503 0.859968C74.7874 1.044 75.0059 1.33155 75.0059 1.72263C75.0059 2.1137 74.9484 2.37825 74.8334 2.51627C74.7414 2.6543 74.4999 2.72331 74.1088 2.72331C73.6947 2.72331 73.2691 2.58529 72.832 2.30923C72.418 2.03318 72.2109 1.65361 72.2109 1.17053ZM79.9749 20.1835C79.4688 20.2755 79.0662 20.241 78.7671 20.08C78.4911 19.896 78.2956 19.6774 78.1805 19.4244C78.0655 19.1483 78.008 18.8838 78.008 18.6307C78.031 18.3547 78.0885 18.1822 78.1805 18.1131C78.2496 18.0901 78.3991 17.9981 78.6291 17.8371C78.8822 17.6761 79.0317 17.5725 79.0777 17.5265C79.1007 17.5265 79.1237 17.515 79.1467 17.492C79.1927 17.446 79.2272 17.4115 79.2502 17.3885V16.7674C79.2502 15.4792 79.1697 14.2139 79.0087 12.9717C78.8707 11.7065 78.8017 10.4412 78.8017 9.176C78.8017 8.34785 78.8132 7.48519 78.8362 6.58802C78.8822 5.69086 79.0317 4.86271 79.2847 4.10357C79.5608 3.34443 79.9864 2.72331 80.5615 2.24022C81.1366 1.75713 81.9647 1.51559 83.0459 1.51559C83.23 1.51559 83.4485 1.51559 83.7016 1.51559C83.9546 1.51559 84.1846 1.5501 84.3917 1.61911C84.6217 1.66512 84.8173 1.76864 84.9783 1.92966C85.1393 2.06769 85.2198 2.27473 85.2198 2.55078C85.2198 2.96486 85.1163 3.24091 84.9093 3.37893C84.7252 3.49395 84.4837 3.57447 84.1846 3.62048C83.8856 3.64348 83.575 3.68949 83.253 3.7585C82.9309 3.80451 82.6549 3.97704 82.4248 4.2761C82.3788 4.32211 82.3213 4.44863 82.2523 4.65567C82.1833 4.8397 82.1488 4.96622 82.1488 5.03524C82.1028 5.19627 82.0568 5.41481 82.0107 5.69086C81.9647 5.96691 81.9187 6.24296 81.8727 6.51901C81.8497 6.79506 81.8152 7.04811 81.7692 7.27815C81.7462 7.48519 81.7347 7.60021 81.7347 7.62321C81.7347 7.64622 81.7347 7.73824 81.7347 7.89926C81.7347 8.03729 81.7232 8.20982 81.7002 8.41686C81.7002 8.6239 81.7002 8.84244 81.7002 9.07248C81.7002 9.27952 81.7002 9.45205 81.7002 9.59008C81.7002 10.0732 81.7002 10.5217 81.7002 10.9358C81.7002 11.3499 81.7117 11.764 81.7347 12.1781C81.7577 12.5691 81.7922 12.9717 81.8382 13.3858C81.8842 13.7999 81.9417 14.2599 82.0107 14.766H82.2868L86.9452 12.0055C87.2672 11.9365 87.5548 11.8215 87.8078 11.6605C88.0609 11.4994 88.3484 11.4189 88.6705 11.4189C88.9925 11.4189 89.3261 11.4994 89.6712 11.6605C90.0162 11.8215 90.1888 12.0745 90.1888 12.4196C90.1888 12.6726 90.1312 12.8567 90.0162 12.9717C89.9012 13.0867 89.8092 13.2478 89.7402 13.4548C89.6482 13.4778 89.4756 13.5468 89.2226 13.6618C88.9695 13.7768 88.797 13.8574 88.705 13.9034C88.5209 14.0184 88.2219 14.2024 87.8078 14.4555C87.4167 14.6855 87.0027 14.9386 86.5656 15.2146C86.1285 15.4677 85.7259 15.7092 85.3579 15.9392C84.9898 16.1693 84.7482 16.3188 84.6332 16.3878C84.4722 16.5029 84.2767 16.6409 84.0466 16.8019C83.8166 16.9629 83.5865 17.1355 83.3565 17.3195C83.1495 17.4805 82.9654 17.6301 82.8044 17.7681C82.6434 17.8831 82.5628 17.9406 82.5628 17.9406V18.2857L83.46 21.2187C83.437 21.2877 83.4255 21.3682 83.4255 21.4603C83.4485 21.5293 83.506 21.5868 83.598 21.6328L85.2198 26.5672C85.3349 26.9813 85.2428 27.3263 84.9438 27.6024C84.6677 27.8784 84.3457 28.0165 83.9776 28.0165C83.5635 28.0165 83.161 27.9015 82.7699 27.6714C82.3788 27.4644 82.1258 27.1423 82.0107 26.7052L80.1129 20.4596L79.9749 20.1835ZM90.2233 26.3257C89.9932 24.0252 89.7977 22.0584 89.6366 20.4251C89.4756 18.7918 89.3376 17.423 89.2226 16.3188C89.1075 15.2146 89.004 14.3405 88.912 13.6963C88.843 13.0292 88.7855 12.5346 88.7395 12.2126C88.6935 11.8675 88.659 11.6375 88.636 11.5224C88.613 11.4074 88.6015 11.3384 88.6015 11.3154V11.1774C88.6015 10.9243 88.705 10.7173 88.912 10.5563C89.1421 10.3722 89.3721 10.2802 89.6021 10.2802C89.9472 10.2802 90.3153 10.3377 90.7063 10.4527C91.1204 10.5678 91.3965 10.8093 91.5345 11.1774C91.7415 12.3046 91.8796 13.4433 91.9486 14.5935C92.0406 15.7437 92.1096 16.8939 92.1556 18.0441C92.2246 19.1713 92.3051 20.3101 92.3972 21.4603C92.5122 22.6105 92.7077 23.7492 92.9838 24.8764C92.9838 24.9224 92.9953 25.0144 93.0183 25.1524C93.0643 25.2905 93.0988 25.44 93.1218 25.601C93.1678 25.7621 93.2023 25.9116 93.2253 26.0496C93.2483 26.1876 93.2598 26.2797 93.2598 26.3257V26.3947C93.2598 26.4177 93.2713 26.4407 93.2943 26.4637C93.2943 26.7397 93.1678 27.0158 92.9147 27.2918C92.6617 27.5679 92.3972 27.6829 92.1211 27.6369C92.0521 27.6139 91.8796 27.5794 91.6035 27.5334C91.3505 27.4644 91.1779 27.4069 91.0859 27.3609C91.0169 27.3378 90.9249 27.2918 90.8099 27.2228C90.6948 27.1308 90.5798 27.0388 90.4648 26.9468C90.3728 26.8548 90.2923 26.7512 90.2233 26.6362C90.1542 26.5212 90.1542 26.4177 90.2233 26.3257ZM88.2909 1.17053C88.2909 1.0095 88.4174 0.87147 88.6705 0.756449C88.9465 0.618423 89.1536 0.549411 89.2916 0.549411C89.6366 0.549411 90.0162 0.65293 90.4303 0.859968C90.8674 1.044 91.0859 1.33155 91.0859 1.72263C91.0859 2.1137 91.0284 2.37825 90.9134 2.51627C90.8214 2.6543 90.5798 2.72331 90.1887 2.72331C89.7747 2.72331 89.3491 2.58529 88.912 2.30923C88.4979 2.03318 88.2909 1.65361 88.2909 1.17053ZM94.5711 23.4961C94.41 22.806 94.41 21.9894 94.5711 21.0462C94.7551 20.103 95.0311 19.1598 95.3992 18.2167C95.7903 17.2505 96.2619 16.3418 96.814 15.4907C97.3891 14.6395 97.9872 13.9609 98.6083 13.4548C99.2524 12.9487 99.8965 12.6726 100.541 12.6266C101.208 12.5576 101.84 12.8452 102.439 13.4893C102.439 13.5123 102.45 13.5698 102.473 13.6618C102.496 13.7538 102.519 13.9494 102.542 14.2484C102.565 14.5245 102.577 14.9271 102.577 15.4562C102.6 15.9623 102.611 16.6639 102.611 17.561C102.634 17.6071 102.657 17.6876 102.68 17.8026C102.726 17.8946 102.749 17.9636 102.749 18.0096C102.68 18.2627 102.542 18.5042 102.335 18.7343C102.151 18.9413 101.909 19.0448 101.61 19.0448C101.219 19.0448 100.897 18.9873 100.644 18.8723C100.414 18.7343 100.242 18.4237 100.127 17.9406C100.173 17.8716 100.184 17.7336 100.161 17.5265C100.138 17.2965 100.092 17.0434 100.023 16.7674C99.977 16.4913 99.931 16.2153 99.885 15.9392C99.839 15.6632 99.816 15.4447 99.816 15.2836C99.793 15.2836 99.7585 15.3066 99.7125 15.3526C99.6895 15.3756 99.6665 15.3986 99.6435 15.4217C99.2524 16.1118 98.8843 16.8824 98.5393 17.7336C98.2172 18.5617 97.9642 19.4129 97.7801 20.287C97.6191 21.1382 97.5616 21.9894 97.6076 22.8405C97.6766 23.6917 97.9297 24.4623 98.3668 25.1524C98.6888 25.1524 98.9879 25.0259 99.2639 24.7729C99.54 24.4968 99.77 24.2438 99.954 24.0137C100.345 23.5536 100.725 23.0821 101.093 22.599C101.484 22.1159 101.84 21.6098 102.162 21.0807C102.3 20.8507 102.404 20.6436 102.473 20.4596C102.542 20.2755 102.623 20.126 102.715 20.011C102.83 19.896 102.968 19.804 103.129 19.7349C103.29 19.6659 103.531 19.6314 103.853 19.6314C104.221 19.6314 104.566 19.7234 104.888 19.9075C105.211 20.0685 105.372 20.3446 105.372 20.7356C105.372 21.2647 105.13 21.9319 104.647 22.737C104.187 23.5191 103.612 24.2783 102.922 25.0144C102.254 25.7506 101.541 26.3832 100.782 26.9123C100.023 27.4184 99.3559 27.6714 98.7808 27.6714C98.2287 27.6714 97.6881 27.5679 97.159 27.3609C96.6529 27.1308 96.2044 26.8318 95.8133 26.4637C95.4452 26.0956 95.1462 25.6585 94.9161 25.1524C94.6861 24.6464 94.5711 24.0942 94.5711 23.4961ZM114.826 18.0096C114.619 18.3777 114.378 18.8263 114.102 19.3554C113.849 19.8615 113.573 20.4136 113.274 21.0117C112.974 21.5868 112.641 22.1734 112.273 22.7715C111.928 23.3466 111.56 23.8757 111.169 24.3588C110.801 24.8419 110.409 25.256 109.995 25.601C109.581 25.9231 109.156 26.1186 108.719 26.1876C108.535 26.1876 108.328 26.1761 108.098 26.1531C107.868 26.1071 107.637 26.0496 107.407 25.9806C107.177 25.8886 106.982 25.7736 106.821 25.6355C106.683 25.4745 106.614 25.2675 106.614 25.0144C106.637 22.668 106.809 20.5401 107.131 18.6307C107.453 16.6984 107.96 15.0076 108.65 13.5583C109.34 12.086 110.225 10.8668 111.307 9.90063C112.388 8.93446 113.699 8.24433 115.24 7.83025C115.286 7.83025 115.367 7.83025 115.482 7.83025C115.62 7.80725 115.712 7.79575 115.758 7.79575C116.448 7.77274 116.943 8.0948 117.242 8.76192C117.564 9.40604 117.794 10.4412 117.932 11.8675C118.093 13.2708 118.196 15.0881 118.242 17.3195C118.311 19.5279 118.438 22.1849 118.622 25.2905C118.691 25.5435 118.726 25.7621 118.726 25.9461C118.749 26.1301 118.76 26.3487 118.76 26.6017C118.76 26.9468 118.656 27.2113 118.449 27.3954C118.242 27.5564 117.978 27.6369 117.656 27.6369C116.989 27.6369 116.517 27.4529 116.241 27.0848C115.965 26.7167 115.781 26.2221 115.689 25.601C115.689 25.578 115.666 25.394 115.62 25.0489C115.597 24.7039 115.551 24.3128 115.482 23.8757C115.436 23.4156 115.39 22.9555 115.344 22.4955C115.298 22.0354 115.263 21.6558 115.24 21.3567V21.2187C115.194 20.9887 115.16 20.7011 115.137 20.3561C115.137 20.011 115.114 19.6774 115.068 19.3554C115.022 18.9643 114.987 18.5732 114.964 18.1822L114.826 18.0096ZM114.067 11.1774C113.446 11.6375 112.836 12.2586 112.238 13.0407C111.64 13.8229 111.215 14.582 110.962 15.3181C110.847 15.6632 110.72 16.1348 110.582 16.7329C110.444 17.331 110.317 17.9291 110.202 18.5272C110.11 19.1023 110.03 19.6429 109.961 20.149C109.892 20.6321 109.857 20.9427 109.857 21.0807C109.88 21.0807 109.903 21.0577 109.926 21.0117C109.972 20.9657 110.007 20.9312 110.03 20.9082C111.456 19.5279 112.457 18.0441 113.032 16.4568C113.63 14.8465 113.975 13.0867 114.067 11.1774ZM130.389 26.4637C130.067 26.0036 129.791 25.371 129.561 24.5658C129.353 23.7377 129.146 22.875 128.939 21.9779C128.755 21.0577 128.583 20.172 128.422 19.3209C128.261 18.4467 128.088 17.7566 127.904 17.2505C127.743 16.7214 127.559 16.4223 127.352 16.3533C127.145 16.2843 126.904 16.5949 126.627 17.285L123.625 26.5327C123.51 26.8548 123.372 27.0848 123.211 27.2228C123.05 27.3378 122.786 27.3954 122.418 27.3954C122.234 27.3954 122.038 27.3724 121.831 27.3263C121.624 27.2573 121.429 27.1653 121.244 27.0503C121.06 26.9353 120.899 26.7972 120.761 26.6362C120.646 26.4752 120.577 26.2912 120.554 26.0841C120.623 25.8081 120.681 25.302 120.727 24.5658C120.796 23.8297 120.842 22.9785 120.865 22.0124C120.888 21.0462 120.899 20.034 120.899 18.9758C120.922 17.8946 120.922 16.8939 120.899 15.9738C120.899 15.0306 120.888 14.2254 120.865 13.5583C120.842 12.8682 120.819 12.4196 120.796 12.2126C120.796 11.9825 120.796 11.7525 120.796 11.5224C120.819 11.2694 120.853 11.0393 120.899 10.8323C120.968 10.6253 121.072 10.4642 121.21 10.3492C121.371 10.2112 121.613 10.1422 121.935 10.1422C122.372 10.1422 122.774 10.3262 123.142 10.6943C123.533 11.0623 123.729 11.4534 123.729 11.8675C123.729 12.4656 123.694 13.0637 123.625 13.6618C123.579 14.2369 123.556 14.8235 123.556 15.4217C123.556 15.7897 123.556 16.1003 123.556 16.3533C123.556 16.6064 123.602 16.9169 123.694 17.285C123.763 17.101 123.878 16.7789 124.039 16.3188C124.201 15.8587 124.373 15.3756 124.557 14.8695C124.764 14.3635 124.948 13.8919 125.109 13.4548C125.27 12.9947 125.385 12.6726 125.454 12.4886C125.615 12.0285 125.857 11.5914 126.179 11.1774C126.501 10.7403 126.927 10.4987 127.456 10.4527C127.801 10.4297 128.111 10.5217 128.387 10.7288C128.686 10.9358 128.939 11.2119 129.146 11.5569C129.353 11.879 129.526 12.2241 129.664 12.5921C129.802 12.9372 129.906 13.2362 129.975 13.4893L131.838 22.0814L133.287 26.0151C133.31 26.0381 133.322 26.1071 133.322 26.2221C133.322 26.3142 133.322 26.3832 133.322 26.4292C133.322 26.7052 133.253 26.9813 133.115 27.2573C133 27.5104 132.781 27.6369 132.459 27.6369C132.068 27.6369 131.665 27.5334 131.251 27.3263C130.837 27.0963 130.55 26.8087 130.389 26.4637ZM143.501 22.1849C143.478 22.1849 143.317 22.4379 143.018 22.944C142.742 23.4501 142.362 24.0022 141.879 24.6003C141.396 25.1985 140.821 25.7506 140.154 26.2566C139.51 26.7627 138.82 27.0158 138.084 27.0158C137.071 27.0158 136.22 26.7052 135.53 26.0841C134.863 25.463 134.529 24.6118 134.529 23.5306C134.483 22.9785 134.552 22.3229 134.736 21.5638C134.943 20.8046 135.231 20.0225 135.599 19.2174C135.99 18.3892 136.45 17.5956 136.979 16.8364C137.531 16.0543 138.118 15.3871 138.739 14.835C139.36 14.2599 140.004 13.8344 140.672 13.5583C141.362 13.2823 142.052 13.2362 142.742 13.4203V12.9372C142.742 12.3391 142.719 11.7295 142.673 11.1084C142.65 10.4642 142.615 9.7396 142.569 8.93446C142.546 8.1063 142.512 7.16313 142.466 6.10493C142.443 5.02374 142.431 3.7355 142.431 2.24022C142.5 1.98718 142.615 1.82615 142.776 1.75713C142.96 1.66512 143.156 1.61911 143.363 1.61911C143.892 1.61911 144.306 1.79164 144.605 2.1367C144.927 2.48177 145.123 2.90735 145.192 3.41344C145.146 4.19558 145.123 5.00073 145.123 5.82888C145.146 6.63403 145.192 7.5542 145.261 8.58939C145.33 9.62458 145.433 10.7978 145.571 12.109C145.732 13.4203 145.928 14.9731 146.158 16.7674C146.388 18.5387 146.664 20.5861 146.986 22.9095C147.308 25.21 147.688 27.8784 148.125 30.915V32.0882C148.125 32.2262 148.067 32.3298 147.952 32.3988C147.86 32.4678 147.734 32.5138 147.573 32.5368C147.435 32.5828 147.285 32.6058 147.124 32.6058C146.986 32.6288 146.883 32.6403 146.814 32.6403C146.469 32.6403 146.101 32.5368 145.709 32.3298C145.318 32.1457 145.088 31.8812 145.019 31.5361L143.743 22.3229C143.743 22.2539 143.708 22.2194 143.639 22.2194C143.593 22.1964 143.547 22.1849 143.501 22.1849ZM137.428 22.944C137.428 23.013 137.416 23.1396 137.393 23.3236C137.393 23.4846 137.393 23.6572 137.393 23.8412C137.416 24.0252 137.451 24.1863 137.497 24.3243C137.543 24.4623 137.635 24.5313 137.773 24.5313C138.348 24.5543 138.935 24.3358 139.533 23.8757C140.154 23.4156 140.718 22.852 141.224 22.1849C141.73 21.4948 142.144 20.7586 142.466 19.9765C142.811 19.1943 142.995 18.4927 143.018 17.8716C143.064 17.2505 142.914 16.7789 142.569 16.4568C142.247 16.1118 141.684 16.0313 140.879 16.2153C139.889 17.0895 139.061 18.0901 138.394 19.2174C137.75 20.3446 137.428 21.5868 137.428 22.944ZM149.16 22.3574L150.437 13.4893C150.483 13.1902 150.609 12.9717 150.816 12.8337C151.046 12.6956 151.3 12.6266 151.576 12.6266C152.082 12.6266 152.484 12.7762 152.783 13.0752C153.082 13.3513 153.335 13.6963 153.542 14.1104H153.577C153.853 14.1104 154.095 14.0644 154.302 13.9724C154.532 13.8574 154.808 13.7999 155.13 13.7999C155.866 13.7999 156.487 14.0299 156.993 14.49C157.522 14.9501 157.948 15.5137 158.27 16.1808C158.592 16.8249 158.822 17.5265 158.96 18.2857C159.121 19.0448 159.201 19.7119 159.201 20.287C159.201 20.9772 159.017 21.7478 158.649 22.599C158.304 23.4501 157.833 24.2553 157.235 25.0144C156.66 25.7736 156.004 26.4062 155.268 26.9123C154.532 27.4184 153.784 27.6714 153.025 27.6714C152.335 27.6714 151.737 27.5104 151.231 27.1883C150.747 26.8663 150.345 26.4637 150.023 25.9806C149.724 25.4745 149.505 24.9109 149.367 24.2898C149.229 23.6687 149.16 23.0591 149.16 22.4609V22.3574ZM152.059 22.5645C152.105 22.7945 152.151 23.0591 152.197 23.3581C152.243 23.6572 152.312 23.9332 152.404 24.1863C152.496 24.4163 152.622 24.6003 152.783 24.7384C152.967 24.8534 153.22 24.8534 153.542 24.7384C153.841 24.4623 154.164 24.1518 154.509 23.8067C154.854 23.4616 155.176 23.0936 155.475 22.7025C155.797 22.3114 156.061 21.8973 156.268 21.4603C156.475 21.0232 156.579 20.5631 156.579 20.08C156.671 19.2979 156.613 18.5847 156.406 17.9406C156.199 17.2735 155.9 16.8019 155.509 16.5259C155.141 16.2268 154.716 16.1923 154.233 16.4223C153.749 16.6294 153.266 17.216 152.783 18.1822C152.507 18.7803 152.312 19.4819 152.197 20.287C152.105 21.0692 152.059 21.7938 152.059 22.4609V22.5645Z" fill="url(#paint0_radial_17_2)"/>
<defs>
<radialGradient id="paint0_radial_17_2" cx="0" cy="0" r="1" gradientUnits="userSpaceOnUse" gradientTransform="translate(135.51 -11.1998) rotate(156.859) scale(92.0727 66.7684)">
<stop stop-color="#006344"/>
<stop offset="1" stop-color="#B9D870"/>
</radialGradient>
</defs>
</svg>
