<svg width="60" height="60" viewBox="0 0 60 60" fill="none" xmlns="http://www.w3.org/2000/svg">
<g clip-path="url(#clip0_4_168)">
<ellipse cx="29.951" cy="29.9995" rx="29.951" ry="29.9509" fill="url(#paint0_radial_4_168)"/>
<path d="M19.966 50.3572C20.8201 49.1827 21.7544 48.3018 22.7687 47.7146C23.8364 47.1274 24.9041 46.6469 25.9718 46.2732C27.0929 45.8995 28.1873 45.5525 29.255 45.2322C30.3761 44.8585 31.4705 44.2712 32.5382 43.4705C33.1255 43.1501 33.9529 42.6697 35.0206 42.0291C36.0884 41.3884 37.1294 40.6944 38.1437 39.947C39.2114 39.1462 40.119 38.3722 40.8663 37.6248C41.6671 36.8774 42.0675 36.2367 42.0675 35.7029C42.0675 35.6495 42.0408 35.6228 41.9874 35.6228C41.8807 35.6228 41.8273 35.5961 41.8273 35.5427L41.6671 35.3826C41.4002 35.2758 40.9731 35.1423 40.3859 34.9822C39.7986 34.822 39.4516 34.7153 39.3449 34.6619C32.4581 33.8611 26.9061 33.1671 22.6886 32.5798C18.5246 31.9392 15.2947 31.2719 12.9992 30.5779C10.757 29.8839 9.26218 29.0831 8.51479 28.1755C7.76739 27.268 7.39369 26.1202 7.39369 24.7322C7.39369 24.1983 7.50046 23.6111 7.714 22.9705C7.92755 22.3298 8.16778 21.6892 8.43471 21.0486C8.75502 20.408 9.07533 19.8207 9.39565 19.2869C9.71596 18.753 10.0096 18.3259 10.2765 18.0056C11.1307 16.9379 12.2518 15.977 13.6398 15.1228C15.0278 14.2686 16.5226 13.5212 18.1242 12.8806C19.7257 12.24 21.3273 11.6794 22.9288 11.199C24.5838 10.7185 26.0786 10.2914 27.4132 9.91772C28.908 9.81095 30.4028 9.46395 31.8976 8.87671C33.4458 8.23608 34.9673 7.809 36.4621 7.59546C37.2094 7.59546 37.8234 7.88908 38.3038 8.47632C38.7843 9.06356 39.0246 9.67749 39.0246 10.3181C39.0246 11.2257 38.8377 11.9197 38.464 12.4001C38.1437 12.8272 37.6899 13.1742 37.1027 13.4412C36.5688 13.6547 35.9549 13.8416 35.2609 14.0017C34.5669 14.1085 33.8729 14.2419 33.1788 14.4021C32.7518 14.5089 32.1645 14.669 31.4171 14.8826C30.6697 15.0427 29.9223 15.2296 29.1749 15.4431C28.4275 15.6567 27.7602 15.8435 27.173 16.0037C26.5857 16.1638 26.2387 16.2706 26.132 16.324C24.477 17.018 22.9022 17.6853 21.4074 18.3259C19.966 18.9132 18.6847 19.5271 17.5636 20.1677C16.4959 20.8083 15.6417 21.5024 15.0011 22.2498C14.4139 22.9438 14.1469 23.7179 14.2003 24.572V24.6521C14.7342 25.3995 15.9354 25.96 17.8038 26.3337C19.6723 26.7074 21.8611 27.0278 24.3703 27.2947C26.9328 27.5616 29.602 27.8285 32.3781 28.0955C35.2075 28.3624 37.7967 28.7628 40.1456 29.2966C42.4946 29.8305 44.4432 30.5512 45.9913 31.4587C47.5395 32.3663 48.3403 33.5942 48.3937 35.1423C48.3937 35.7296 48.2602 36.4236 47.9933 37.2244C47.7798 38.0251 47.4594 38.6391 47.0324 39.0662C45.6977 40.561 44.0962 42.1091 42.2277 43.7107C40.4126 45.3123 38.4373 46.807 36.3019 48.1951C34.1665 49.5297 31.951 50.6775 29.6554 51.6384C27.4132 52.546 25.1977 53.0798 23.0089 53.24C22.2615 53.24 21.5675 52.9731 20.9269 52.4392C20.2863 51.852 19.966 51.158 19.966 50.3572Z" fill="white"/>
</g>
<defs>
<radialGradient id="paint0_radial_4_168" cx="0" cy="0" r="1" gradientUnits="userSpaceOnUse" gradientTransform="translate(50.7333 6.85959) rotate(132.655) scale(46.7801 46.7801)">
<stop stop-color="#006344"/>
<stop offset="1" stop-color="#B9D870"/>
</radialGradient>
<clipPath id="clip0_4_168">
<rect width="60" height="60" fill="white"/>
</clipPath>
</defs>
</svg>
