<svg width="343" height="611" viewBox="0 0 343 611" fill="none" xmlns="http://www.w3.org/2000/svg">
<circle cx="171.5" cy="305.5" r="171.5" fill="url(#paint0_radial_4_168)"/>
<path d="M114.774 431.4C119.692 424.637 125.072 419.564 130.913 416.183C137.061 412.801 143.21 410.034 149.358 407.883C155.814 405.731 162.115 403.732 168.264 401.888C174.719 399.736 181.021 396.355 187.17 391.743C190.551 389.899 195.316 387.132 201.464 383.443C207.613 379.754 213.607 375.758 219.448 371.454C225.596 366.843 230.822 362.385 235.126 358.082C239.737 353.778 242.043 350.089 242.043 347.015C242.043 346.707 241.889 346.554 241.582 346.554C240.967 346.554 240.66 346.4 240.66 346.092L239.737 345.17C238.2 344.555 235.741 343.787 232.359 342.865C228.978 341.942 226.98 341.328 226.365 341.02C186.709 336.409 154.738 332.413 130.452 329.031C106.474 325.342 87.8751 321.499 74.6563 317.503C61.745 313.507 53.1374 308.895 48.8336 303.669C44.5298 298.443 42.3779 291.834 42.3779 283.841C42.3779 280.767 42.9928 277.386 44.2224 273.697C45.4521 270.008 46.8354 266.319 48.3725 262.63C50.217 258.941 52.0614 255.559 53.9059 252.485C55.7504 249.411 57.4412 246.952 58.9783 245.107C63.8969 238.959 70.3526 233.425 78.3453 228.507C86.3381 223.588 94.9456 219.284 104.168 215.595C113.39 211.906 122.613 208.679 131.835 205.912C141.365 203.145 149.973 200.686 157.658 198.534C166.266 197.919 174.873 195.921 183.481 192.539C192.396 188.85 201.157 186.391 209.765 185.161C214.068 185.161 217.604 186.852 220.37 190.234C223.137 193.615 224.52 197.151 224.52 200.84C224.52 206.066 223.444 210.062 221.293 212.829C219.448 215.288 216.835 217.286 213.454 218.823C210.379 220.053 206.844 221.129 202.848 222.051C198.851 222.666 194.855 223.434 190.859 224.357C188.399 224.972 185.018 225.894 180.714 227.123C176.41 228.046 172.106 229.122 167.803 230.351C163.499 231.581 159.656 232.657 156.275 233.579C152.893 234.501 150.895 235.116 150.28 235.424C140.75 239.42 131.682 243.263 123.074 246.952C114.774 250.333 107.396 253.868 100.94 257.557C94.7919 261.246 89.8733 265.243 86.1843 269.546C82.8028 273.543 81.2657 278 81.5731 282.919V283.38C84.6473 287.684 91.5641 290.912 102.324 293.064C113.083 295.215 125.687 297.06 140.135 298.597C154.891 300.134 170.262 301.671 186.247 303.208C202.54 304.745 217.45 307.051 230.976 310.125C244.502 313.199 255.723 317.349 264.638 322.575C273.553 327.801 278.164 334.872 278.471 343.787C278.471 347.168 277.703 351.165 276.166 355.776C274.936 360.387 273.092 363.922 270.632 366.382C262.947 374.989 253.725 383.904 242.965 393.127C232.513 402.349 221.139 410.957 208.842 418.949C196.546 426.635 183.788 433.244 170.569 438.778C157.658 444.004 144.9 447.078 132.296 448C127.993 448 123.996 446.463 120.307 443.389C116.618 440.007 114.774 436.011 114.774 431.4Z" fill="white"/>
<defs>
<radialGradient id="paint0_radial_4_168" cx="0" cy="0" r="1" gradientUnits="userSpaceOnUse" gradientTransform="translate(290.5 173) rotate(132.655) scale(267.864)">
<stop stop-color="#006344"/>
<stop offset="1" stop-color="#B9D870"/>
</radialGradient>
</defs>
</svg>
